<svg xmlns="http://www.w3.org/2000/svg" width="159" height="141" viewBox="0 0 159 141" fill="none"><metadata><rdf:RDF xmlns:rdf="http://www.w3.org/1999/02/22-rdf-syntax-ns#" xmlns:dc="http://purl.org/dc/elements/1.1/"><rdf:Description><dc:creator>RealFaviconGenerator</dc:creator><dc:source>https://realfavicongenerator.net</dc:source></rdf:Description></rdf:RDF></metadata><path fill-rule="evenodd" clip-rule="evenodd" d="M113.162 0.579619C109.712 1.77195 106.465 4.60766 105.244 7.49515C104.828 8.4797 104.709 9.69282 104.728 12.7695C104.744 15.5078 104.594 17.3103 104.252 18.4972C103.759 20.2023 101.891 23.3203 100.385 24.9492L99.6162 25.781L104.404 28.1513L109.192 30.5219L111.132 28.3814C113.345 25.9402 115.033 25.0074 119.138 23.9593C122.715 23.046 123.888 22.5291 125.165 21.3042C127.355 19.2037 128.734 15.6027 128.734 11.9857C128.734 9.81588 128.159 7.33468 127.657 7.33692C127.458 7.33788 126.691 8.23676 125.953 9.33479C125.214 10.4328 123.908 12.1942 123.051 13.249L121.492 15.167L119.685 15.1053C117.085 15.0161 115.123 13.9469 113.618 11.7978C111.861 9.2894 111.839 8.93586 113.307 6.78487C113.999 5.76898 115.237 3.95459 116.058 2.75235C116.878 1.55043 117.468 0.435771 117.369 0.274982C117.078 -0.195238 114.962 -0.0421201 113.162 0.579619ZM31.7171 5.23132C26.4258 6.72733 23.5712 8.61716 17.2525 14.8077C13.8056 18.1846 12.3777 19.7957 12.3777 20.3078C12.3777 22.3805 11.5728 24.4125 10.1308 25.9808C8.70256 27.5343 8.59164 27.5893 6.60112 27.7287C4.6611 27.8645 4.43829 27.9665 2.62262 29.5527C1.56487 30.4768 0.500079 31.6055 0.256498 32.061C-0.146913 32.8145 -0.11271 32.9977 0.634976 34.0973C2.19875 36.3969 7.42456 41.539 8.19782 41.539C9.28019 41.539 13.336 37.5256 13.3386 36.4519C13.345 33.4183 15.7165 30.4723 18.8959 29.5482C21.3624 28.8312 22.657 29.0761 24.9506 30.6935L26.8168 32.0096L27.6498 31.26C28.9297 30.1086 34.5819 24.2521 34.6877 23.9679C34.7389 23.8295 33.9826 22.6557 33.0067 21.3595C30.9813 18.6698 30.1067 16.695 30.4085 15.4924C30.9221 13.4456 33.91 11.2013 37.6309 10.0675C39.8327 9.39617 45.9692 9.09537 49.1386 9.50326C51.4236 9.79734 52.3352 9.6324 52.3352 8.92435C52.3352 8.51327 47.7686 6.73851 44.4246 5.85018C40.5551 4.82215 34.2505 4.51496 31.7171 5.23132ZM144.7 8.80096L143.598 9.94694L144.588 10.7988C146.454 12.4058 155.03 19.6422 155.964 20.3979C156.478 20.8135 156.937 21.1012 156.985 21.0372C157.968 19.7174 158.488 18.7517 158.406 18.4004C158.271 17.8259 146.553 7.65498 146.026 7.65498C145.902 7.65498 145.306 8.17059 144.7 8.80096ZM136.847 18.2361C120.362 38.6882 117.866 41.8244 117.866 42.0798C117.866 42.233 118.384 43.1862 119.017 44.1986C120.376 46.3719 120.15 46.4672 123.364 42.3717C126.934 37.8239 128.06 36.7441 129.232 36.7441C130.432 36.7441 132.685 38.1761 133.55 39.4887C134.477 40.8949 134.327 41.905 132.955 43.4918C132.287 44.2638 130.184 46.8118 128.281 49.1539L124.82 53.4121L125.898 55.7747C126.491 57.0741 127.077 58.1067 127.201 58.0696C127.325 58.0322 128.62 56.4668 130.078 54.591C132.305 51.7269 140.368 41.7081 153.267 25.7756C154.717 23.9845 155.904 22.4431 155.904 22.3501C155.905 22.1765 143.189 11.4056 142.786 11.2384C142.663 11.1872 139.99 14.3362 136.847 18.2361ZM144.307 22.0109C147.116 24.0459 147.634 27.3924 145.562 30.1105C143.582 32.7055 141.059 33.5011 138.671 32.2829C135.329 30.5778 134.369 26.9107 136.393 23.5824C137.963 21.0002 141.847 20.2291 144.307 22.0109ZM137.073 23.4443C136.599 24.0158 136.726 25.2938 137.276 25.4748C137.784 25.6419 139.369 24.0571 139.202 23.5491C139.011 22.968 137.529 22.8951 137.073 23.4443ZM139.043 25.2245C138.647 25.7263 138.331 26.2576 138.339 26.4056C138.347 26.5536 139.156 27.3163 140.135 28.1001L141.916 29.5258L142.883 28.4425L143.851 27.3592L142.127 25.8286C141.178 24.9866 140.258 24.301 140.082 24.3051C139.906 24.3093 139.439 24.7229 139.043 25.2245ZM69.1308 25.9034C58.0632 28.0036 50.509 31.9246 43.0664 39.4315C34.7053 47.8647 29.8343 57.3423 27.6038 69.5185C27.154 71.9748 26.6282 75.9984 26.4357 78.4597C26.2433 80.9211 26.0269 83.115 25.9546 83.3346C25.8824 83.5545 25.3898 83.7341 24.8595 83.7341C24.246 83.7341 23.5159 84.0733 22.8517 84.6669C21.9122 85.506 21.8077 85.7761 21.8077 87.3581C21.8077 90.1245 23.1988 91.2478 27.839 92.2278C30.7233 92.8371 38.3849 93.55 45.063 93.8303C48.008 93.9537 50.4173 94.1135 50.4173 94.1848C50.4173 94.578 49.2374 96.5353 48.3094 97.6812C47.2629 98.9736 44.7363 100.429 42.0307 101.298C41.3738 101.509 40.7808 101.779 40.7127 101.898C40.6449 102.017 41.3351 104.2 42.2468 106.749C43.3895 109.945 44.0688 111.415 44.4351 111.486C45.3625 111.664 53.1814 108.346 54.507 107.211C55.1898 106.627 56.6964 104.593 57.8551 102.693C60.2101 98.8282 62.4969 96.3483 64.7387 95.2266C66.1621 94.5147 66.7151 94.4613 75.3425 94.2027C80.3483 94.0525 84.744 94.0052 85.1106 94.0972C85.5236 94.2008 86.0488 94.8657 86.4913 95.8438C87.2754 97.5793 88.1174 98.286 89.7703 98.5961C91.266 98.8765 92.9139 97.7487 93.5656 95.9986C94.484 93.5311 94.4924 93.5279 99.0485 93.7456C101.273 93.852 104.511 94.1528 106.244 94.4137C114.982 95.73 117.213 95.9589 122.82 96.1133C129.13 96.2869 131.515 96.0737 136.156 94.9223C141.446 93.6094 145.676 91.2337 145.676 89.5756C145.676 88.2704 143.485 87.0634 134.488 83.4097C132.642 82.6601 130.986 81.9338 130.808 81.7957C130.63 81.6576 129.767 81.8967 128.89 82.3267C124.705 84.3789 120.747 85.3577 113.47 86.1396C110.955 86.4097 110.846 85.9094 113.31 85.3999C118.17 84.3949 125.842 81.1327 127.533 79.3529L128.409 78.43L127.768 74.4493C126.96 69.429 124.936 61.9343 123.448 58.4442C121.889 54.7902 119.807 50.9901 117.234 47.0998C115.642 44.6943 114.931 43.2642 114.524 41.6499C113.333 36.9375 113.361 36.9781 109.753 34.7126C101.933 29.8039 95.4862 27.3643 86.3791 25.867C81.2859 25.0298 73.6499 25.0458 69.1308 25.9034ZM31.774 29.3538L28.5733 32.5127L32.5425 36.8521L36.512 41.1912L39.7886 37.9345C41.5905 36.1434 43.0651 34.5665 43.0651 34.4307C43.0651 34.0455 35.6621 26.1953 35.2986 26.1953C35.1206 26.1953 33.5347 27.6168 31.774 29.3538ZM143.451 28.813C142.25 30.1022 142.904 31.47 144.351 30.6955C145.175 30.254 145.519 29.1736 145.024 28.5774C144.502 27.9486 144.216 27.9915 143.451 28.813ZM83.0881 32.1013C86.7006 32.7314 91.7497 34.5138 95.592 36.5155C103.16 40.4585 109.799 47.8647 113.416 56.4006C115.156 60.5067 115.427 61.7575 114.612 61.925C114.22 62.0056 113.457 60.9804 111.767 58.1003C107.805 51.3503 104.704 47.7835 99.3464 43.8114C94.7682 40.417 89.3343 38.0659 82.8628 36.6792C78.7152 35.7905 71.1031 35.7189 67.0623 36.5309C56.3876 38.6751 47.3958 44.259 40.5983 52.964C39.4644 54.4162 38.4744 55.604 38.398 55.604C38.322 55.604 38.6093 54.9209 39.037 54.0856C42.1058 48.093 47.5406 42.108 53.5352 38.1193C57.89 35.2218 64.3791 32.7036 69.4371 31.9479C72.3281 31.516 80.2419 31.6052 83.0881 32.1013ZM113.149 73.5833L113.866 74.3006L111.95 74.5452C104.97 75.4364 103.333 75.749 102.787 76.295C102.32 76.7611 102.146 77.799 101.858 81.82C101.663 84.5429 101.405 86.8758 101.284 87.0043C101.082 87.2184 85.5898 87.8584 83.5843 87.735C83.1022 87.7056 82.5987 87.5736 82.4654 87.4419C82.3325 87.3102 82.0796 85.8826 81.9038 84.2696L81.5841 81.3367L73.5201 81.2513L65.4563 81.166L65.2824 81.8907C65.1869 82.2893 65.0753 83.7661 65.0344 85.1726L64.9602 87.7299L56.9697 87.7018C47.5275 87.6682 43.5382 87.4559 42.935 86.9554C42.638 86.7089 42.4181 85.4204 42.2608 83.004C42.1326 81.0321 41.9076 79.1023 41.7612 78.7155C41.4319 77.8463 40.245 77.518 35.4732 76.9759C33.4954 76.7512 31.877 76.4456 31.877 76.2969C31.877 76.148 32.5451 75.7308 33.3618 75.3696C34.7012 74.7769 35.2094 74.7354 38.5563 74.9432C44.2724 75.298 44.9543 75.8961 45.4625 81.0026L45.7822 84.2136L49.1386 84.423C50.9847 84.5384 54.6377 84.7414 57.2567 84.8741C62.8955 85.1598 62.884 85.1659 62.884 81.8603C62.884 78.447 62.3169 78.6196 73.537 78.6196C84.978 78.6196 84.3013 78.3939 84.3013 82.211V84.7446L88.6966 84.5509C91.1142 84.4444 94.2651 84.2769 95.6991 84.1791L98.3065 84.0014L98.5245 80.2716C98.8221 75.1855 99.5916 73.6127 102.042 73.0792C102.394 73.0025 104.876 72.9232 107.557 72.9028C112.207 72.8673 112.464 72.8986 113.149 73.5833ZM96.2997 97.8833C95.5968 99.5656 94.3619 100.866 92.919 101.443C91.9808 101.819 91.695 102.082 91.8791 102.4C92.0188 102.642 94.0749 104.904 96.4483 107.428C104.822 116.33 105.9 117.476 108.151 119.853C111.957 123.873 113.353 125.559 115.211 128.38C117.379 131.672 118.031 132.16 119.869 131.867C121.862 131.548 123.583 130.399 126.092 127.712C128.397 125.244 129.297 123.771 129.585 121.997C129.812 120.599 129.086 119.759 125.382 117.133C122.24 114.907 118.162 110.887 110.253 102.221L105.997 97.5585L103.381 97.3533C101.941 97.2401 99.8642 97.0617 98.7652 96.9566L96.7664 96.7657L96.2997 97.8833ZM68.2521 99.1578C65.3393 102.497 59.0363 110.522 56.1859 114.521C52.8003 119.269 50.4575 121.462 46.4084 123.67C36.0226 129.333 30.5919 132.661 30.6073 133.354C30.6156 133.745 31.9626 135.192 32.7212 135.625C32.9216 135.739 34.5759 135.171 36.3973 134.362C40.6146 132.488 41.1478 132.287 41.1436 132.57C41.1417 132.698 39.9324 134.097 38.4559 135.679C35.4926 138.855 35.5019 138.796 37.713 140.372L38.5943 141L42.5079 138.833C47.6893 135.963 53.4681 132.08 55.8806 129.847C58.1316 127.763 59.8792 125.308 61.6169 121.789C62.9572 119.075 65.6296 115.453 74.3653 104.512L80.1079 97.3197L77.6494 97.2235C74.7473 97.1097 75.5173 96.4544 69.1174 104.486C60.0697 115.839 60.9251 114.573 57.7902 121.254C55.833 125.426 54.0739 128.112 52.7159 129.001C52.0111 129.463 51.9871 129.456 52.2943 128.883C52.4733 128.548 52.8489 128.084 53.1286 127.852C53.9374 127.181 55.6882 123.815 57.1215 120.175C57.8487 118.329 58.8093 116.194 59.2562 115.431C60.0061 114.15 67.3967 104.767 70.8781 100.676C71.7009 99.7092 72.6289 98.5223 72.9402 98.0389L73.5063 97.1599H71.7504C69.9955 97.1599 69.9936 97.1612 68.2521 99.1578ZM29.0793 101.541C27.987 101.751 27.7207 102.565 28.0292 104.749C28.4461 107.697 29.7784 111.687 31.4713 115.061L32.9958 118.098L34.2744 118.019C35.6995 117.932 36.3522 117.308 36.3522 116.031C36.3522 115.248 36.481 115.185 38.8136 114.813C40.167 114.598 41.4051 114.291 41.564 114.133C41.8283 113.868 38.1925 102.119 37.6785 101.576C37.5644 101.455 36.2483 101.778 34.7539 102.293C33.2595 102.808 31.9463 103.23 31.8357 103.231C31.7255 103.232 31.456 102.802 31.2377 102.274C30.8477 101.333 30.5996 101.248 29.0793 101.541Z" fill="url(#paint0_radial_1341_2457)"></path><defs>
<radialGradient id="paint0_radial_1341_2457" cx="0" cy="0" r="1" gradientUnits="userSpaceOnUse" gradientTransform="translate(79.207 70.5) scale(79.207 79.207)">
<stop offset="0.596227" stop-color="#16A8EB"></stop>
<stop offset="1" stop-color="#131F29"></stop>
</radialGradient>
</defs></svg>