<svg width="207" height="63" viewBox="0 0 207 63" fill="none" xmlns="http://www.w3.org/2000/svg">
<path fill-rule="evenodd" clip-rule="evenodd" d="M42.4215 6.48262C41.1995 6.9049 40.0496 7.9092 39.6172 8.93183C39.4698 9.28053 39.4277 9.71016 39.4343 10.7998C39.4401 11.7696 39.387 12.408 39.2656 12.8283C39.0913 13.4322 38.4294 14.5365 37.8962 15.1134L37.6239 15.408L39.3195 16.2474L41.0152 17.087L41.7022 16.3289C42.486 15.4644 43.0841 15.134 44.5379 14.7628C45.8047 14.4393 46.2201 14.2563 46.6723 13.8224C47.4479 13.0785 47.9363 11.8032 47.9363 10.5222C47.9363 9.75375 47.7328 8.875 47.5549 8.87579C47.4845 8.87613 47.2128 9.19448 46.9513 9.58336C46.6897 9.97225 46.2272 10.596 45.9236 10.9696L45.3715 11.6489L44.7316 11.6271C43.8107 11.5955 43.1159 11.2168 42.5829 10.4557C41.9607 9.56729 41.9529 9.44208 42.4725 8.68028C42.7179 8.32049 43.1563 7.67791 43.4468 7.25212C43.7374 6.82644 43.9464 6.43168 43.9113 6.37473C43.8083 6.2082 43.0589 6.26243 42.4215 6.48262ZM13.5767 8.13007C11.7027 8.6599 10.6918 9.32921 8.45392 11.5217C7.23316 12.7176 6.72745 13.2882 6.72745 13.4696C6.72745 14.2036 6.44238 14.9233 5.93169 15.4787C5.42586 16.0289 5.38657 16.0484 4.68161 16.0978C3.99453 16.1459 3.91562 16.182 3.27258 16.7438C2.89797 17.071 2.52086 17.4708 2.43459 17.6321C2.29172 17.899 2.30383 17.9638 2.56863 18.3533C3.12246 19.1677 4.97324 20.9888 5.2471 20.9888C5.63043 20.9888 7.06686 19.5675 7.06776 19.1872C7.07003 18.1128 7.90994 17.0695 9.03594 16.7422C9.90948 16.4882 10.368 16.575 11.1803 17.1478L11.8412 17.6139L12.1362 17.3484C12.5895 16.9406 14.5913 14.8665 14.6288 14.7658C14.6469 14.7168 14.3791 14.3011 14.0334 13.842C13.3161 12.8895 13.0064 12.1901 13.1132 11.7642C13.2952 11.0393 14.3534 10.2444 15.6711 9.84285C16.4509 9.6051 18.6243 9.49857 19.7467 9.64303C20.556 9.74718 20.8789 9.68877 20.8789 9.438C20.8789 9.29241 19.2615 8.66386 18.0772 8.34925C16.7068 7.98516 14.4739 7.87637 13.5767 8.13007ZM53.5908 9.3943L53.2007 9.80016L53.551 10.1019C54.212 10.671 57.2494 13.2339 57.5801 13.5015C57.762 13.6487 57.9247 13.7506 57.9416 13.7279C58.2897 13.2605 58.474 12.9185 58.4448 12.794C58.3971 12.5906 54.2471 8.98844 54.0604 8.98844C54.0167 8.98844 53.8054 9.17105 53.5908 9.3943ZM50.8095 12.7358C44.9713 19.9792 44.0872 21.0899 44.0872 21.1804C44.0872 21.2346 44.2707 21.5722 44.4948 21.9308C44.9763 22.7005 44.8961 22.7342 46.0345 21.2837C47.2987 19.6731 47.6976 19.2907 48.1127 19.2907C48.5376 19.2907 49.3355 19.7979 49.642 20.2627C49.9703 20.7607 49.9171 21.1185 49.4311 21.6804C49.1947 21.9538 48.4498 22.8563 47.7758 23.6858L46.5503 25.1938L46.9319 26.0306C47.1419 26.4908 47.3496 26.8565 47.3935 26.8433C47.4373 26.8301 47.8958 26.2757 48.4124 25.6114C49.201 24.597 52.0565 21.0487 56.625 15.406C57.1386 14.7717 57.5588 14.2258 57.559 14.1929C57.5593 14.1314 53.0556 10.3167 52.9129 10.2575C52.8693 10.2394 51.9227 11.3547 50.8095 12.7358ZM53.4516 14.0728C54.4465 14.7935 54.6301 15.9787 53.896 16.9413C53.1949 17.8604 52.3013 18.1421 51.4556 17.7107C50.272 17.1068 49.932 15.8081 50.6489 14.6293C51.205 13.7148 52.5805 13.4417 53.4516 14.0728ZM50.8898 14.5804C50.7218 14.7828 50.767 15.2354 50.9616 15.2995C51.1413 15.3587 51.7027 14.7974 51.6437 14.6175C51.5761 14.4117 51.0512 14.3859 50.8898 14.5804ZM51.5874 15.2109C51.4472 15.3886 51.3351 15.5768 51.338 15.6292C51.3409 15.6816 51.6272 15.9517 51.9741 16.2293L52.6048 16.7342L52.9475 16.3506L53.2903 15.9669L52.6794 15.4248C52.3434 15.1266 52.0176 14.8838 51.9553 14.8853C51.8931 14.8867 51.7276 15.0332 51.5874 15.2109ZM26.8272 15.4513C22.9075 16.1951 20.2321 17.5838 17.5962 20.2424C14.635 23.2292 12.9099 26.5858 12.1199 30.8981C11.9606 31.768 11.7744 33.193 11.7063 34.0647C11.6381 34.9365 11.5615 35.7134 11.5359 35.7912C11.5103 35.8691 11.3358 35.9327 11.148 35.9327C10.9308 35.9327 10.6722 36.0528 10.4369 36.2631C10.1042 36.5602 10.0672 36.6559 10.0672 37.2162C10.0672 38.1959 10.5599 38.5938 12.2032 38.9409C13.2248 39.1566 15.9382 39.4091 18.3033 39.5084C19.3463 39.5521 20.1996 39.6087 20.1996 39.6339C20.1996 39.7732 19.7817 40.4664 19.4531 40.8722C19.0824 41.33 18.1876 41.8455 17.2294 42.1532C16.9967 42.2279 16.7867 42.3236 16.7626 42.3657C16.7386 42.4078 16.983 43.181 17.3059 44.0837C17.7106 45.2156 17.9512 45.7364 18.0809 45.7614C18.4094 45.8245 21.1785 44.6493 21.648 44.2474C21.8898 44.0405 22.4234 43.3202 22.8338 42.6471C23.6678 41.2784 24.4777 40.4001 25.2717 40.0029C25.7758 39.7508 25.9717 39.7319 29.0271 39.6403C30.8 39.5871 32.3568 39.5703 32.4866 39.6029C32.6329 39.6396 32.8189 39.8751 32.9756 40.2215C33.2533 40.8361 33.5515 41.0864 34.1369 41.1963C34.6666 41.2955 35.2502 40.8961 35.4811 40.2763C35.8063 39.4024 35.8093 39.4013 37.4229 39.4784C38.2107 39.5161 39.3574 39.6226 39.9711 39.715C43.0658 40.1812 43.856 40.2623 45.8419 40.3169C48.0767 40.3784 48.9214 40.3029 50.565 39.8951C52.4383 39.4302 53.9365 38.5888 53.9365 38.0015C53.9365 37.5393 53.1607 37.1118 49.9741 35.8178C49.3203 35.5523 48.7339 35.2951 48.6709 35.2462C48.6079 35.1973 48.3022 35.282 47.9916 35.4342C46.5094 36.1611 45.1076 36.5077 42.5305 36.7846C41.6395 36.8803 41.6011 36.7031 42.4739 36.5227C44.1949 36.1667 46.912 35.0114 47.5109 34.381L47.8213 34.0542L47.5943 32.6444C47.308 30.8664 46.5914 28.212 46.0642 26.976C45.512 25.6819 44.7748 24.336 43.8633 22.9583C43.2998 22.1063 43.048 21.5998 42.9035 21.0281C42.482 19.3592 42.4919 19.3735 41.2139 18.5712C38.4445 16.8327 36.1612 15.9687 32.9358 15.4384C31.1321 15.1419 28.4277 15.1476 26.8272 15.4513ZM13.5969 16.6733L12.4633 17.7921L13.869 19.3289L15.2749 20.8657L16.4353 19.7123C17.0735 19.0779 17.5957 18.5195 17.5957 18.4714C17.5957 18.3349 14.9739 15.5547 14.8451 15.5547C14.7821 15.5547 14.2204 16.0581 13.5969 16.6733ZM53.1485 16.4818C52.723 16.9384 52.9547 17.4228 53.4672 17.1485C53.7592 16.9921 53.8808 16.6095 53.7056 16.3983C53.5207 16.1757 53.4195 16.1908 53.1485 16.4818ZM31.7703 17.6464C33.0497 17.8695 34.8379 18.5008 36.1987 19.2097C38.879 20.6062 41.2302 23.2292 42.5113 26.2523C43.1276 27.7065 43.2235 28.1494 42.935 28.2088C42.7961 28.2373 42.526 27.8742 41.9272 26.8542C40.5239 24.4636 39.4259 23.2004 37.5284 21.7937C35.907 20.5915 33.9825 19.7588 31.6905 19.2677C30.2216 18.953 27.5257 18.9276 26.0946 19.2152C22.314 19.9746 19.1295 21.9521 16.7221 25.0351C16.3205 25.5494 15.9699 25.9701 15.9428 25.9701C15.9159 25.9701 16.0177 25.7282 16.1692 25.4324C17.256 23.31 19.1808 21.1903 21.3038 19.7777C22.8461 18.7516 25.1443 17.8597 26.9357 17.592C27.9595 17.4391 30.7623 17.4707 31.7703 17.6464ZM42.4167 32.3377L42.6708 32.5917L41.9922 32.6783C39.5199 32.994 38.9401 33.1047 38.7468 33.2981C38.5816 33.4631 38.5199 33.8307 38.4179 35.2548C38.3488 36.2191 38.2573 37.0454 38.2147 37.0909C38.1431 37.1667 32.6563 37.3934 31.946 37.3497C31.7753 37.3393 31.597 37.2925 31.5498 37.2459C31.5027 37.1992 31.4132 36.6936 31.3509 36.1223L31.2377 35.0836L28.3817 35.0534L25.5258 35.0232L25.4642 35.2798C25.4304 35.421 25.3909 35.944 25.3764 36.4422L25.3501 37.3479L22.5202 37.3379C19.1762 37.326 17.7633 37.2508 17.5496 37.0735C17.4445 36.9863 17.3666 36.5299 17.3109 35.6741C17.2655 34.9757 17.1858 34.2923 17.1339 34.1553C17.0173 33.8475 16.597 33.7312 14.907 33.5392C14.2065 33.4596 13.6333 33.3514 13.6333 33.2987C13.6333 33.246 13.8699 33.0982 14.1592 32.9703C14.6336 32.7604 14.8136 32.7457 15.9989 32.8193C18.0233 32.945 18.2648 33.1568 18.4448 34.9653L18.558 36.1025L19.7467 36.1767C20.4005 36.2176 21.6943 36.2894 22.6219 36.3364C24.6189 36.4376 24.6148 36.4398 24.6148 35.2691C24.6148 34.0602 24.414 34.1213 28.3877 34.1213C32.4396 34.1213 32.2 34.0414 32.2 35.3933V36.2906L33.7566 36.222C34.6128 36.1843 35.7288 36.1249 36.2366 36.0903L37.1601 36.0274L37.2373 34.7064C37.3427 32.9051 37.6152 32.3481 38.4832 32.1592C38.6077 32.132 39.4866 32.1039 40.4361 32.0967C42.0832 32.0841 42.1742 32.0952 42.4167 32.3377ZM36.4494 40.9438C36.2004 41.5396 35.7631 42 35.252 42.2046C34.9198 42.3375 34.8186 42.4307 34.8838 42.5435C34.9332 42.6291 35.6614 43.4302 36.502 44.324C39.4675 47.477 39.8494 47.8826 40.6466 48.7246C41.9947 50.1484 42.489 50.7454 43.147 51.7447C43.9148 52.9103 44.1459 53.0833 44.7965 52.9794C45.5024 52.8665 46.1119 52.4595 47.0006 51.508C47.8169 50.6339 48.1357 50.1123 48.2376 49.484C48.318 48.9887 48.0611 48.6914 46.7491 47.7614C45.6366 46.9729 44.1922 45.5491 41.3911 42.4802L39.8837 40.8288L38.9571 40.7561C38.4473 40.716 37.7118 40.6528 37.3226 40.6156L36.6146 40.548L36.4494 40.9438ZM26.516 41.3952C25.4844 42.5778 23.2521 45.42 22.2426 46.8361C21.0436 48.5178 20.2138 49.2944 18.7798 50.0763C15.1016 52.0821 13.1782 53.2608 13.1837 53.5063C13.1866 53.6445 13.6637 54.157 13.9323 54.3104C14.0033 54.3509 14.5892 54.1498 15.2343 53.8631C16.7279 53.1996 16.9167 53.1283 16.9152 53.2286C16.9145 53.2737 16.4863 53.7692 15.9633 54.3295C14.9139 55.4544 14.9172 55.4335 15.7002 55.9916L16.0124 56.2141L17.3984 55.4465C19.2334 54.4303 21.2801 53.055 22.1345 52.264C22.9317 51.5259 23.5506 50.6565 24.1661 49.4102C24.6407 48.449 25.5872 47.1664 28.681 43.2914L30.7149 40.7442L29.8442 40.7101C28.8163 40.6698 29.089 40.4377 26.8224 43.282C23.6181 47.3031 23.9211 46.8545 22.8108 49.2209C22.1176 50.6984 21.4946 51.6495 21.0137 51.9646C20.7641 52.1282 20.7556 52.1258 20.8644 51.9226C20.9278 51.804 21.0608 51.6398 21.1598 51.5576C21.4463 51.3198 22.0663 50.1279 22.574 48.8388C22.8315 48.185 23.1717 47.4289 23.33 47.1584C23.5956 46.7047 26.213 43.3816 27.446 41.9329C27.7374 41.5905 28.0661 41.1701 28.1763 40.9989L28.3768 40.6876H27.755C27.1334 40.6876 27.1328 40.688 26.516 41.3952ZM12.6425 42.2393C12.2557 42.3138 12.1614 42.602 12.2706 43.3753C12.4182 44.4193 12.8901 45.8327 13.4897 47.0274L14.0296 48.1029L14.4824 48.0752C14.9871 48.0444 15.2183 47.8232 15.2183 47.3709C15.2183 47.0938 15.2639 47.0712 16.09 46.9398C16.5694 46.8635 17.0078 46.7549 17.0641 46.6987C17.1577 46.605 15.87 42.4438 15.688 42.2516C15.6476 42.2089 15.1815 42.3232 14.6522 42.5055C14.123 42.6879 13.6579 42.8374 13.6187 42.8378C13.5797 42.8383 13.4842 42.6858 13.4069 42.499C13.2688 42.1654 13.1809 42.1356 12.6425 42.2393Z" fill="#16A8EB"/>
<path d="M73.2713 35.5214C71.875 35.5214 70.5723 35.2915 69.3633 34.8317C68.1713 34.3719 67.1325 33.7248 66.247 32.8904C65.3785 32.056 64.6974 31.0769 64.2036 29.953C63.7268 28.8291 63.4884 27.603 63.4884 26.2748C63.4884 24.9465 63.7268 23.7205 64.2036 22.5966C64.6974 21.4727 65.3871 20.4935 66.2726 19.6591C67.158 18.8247 68.1968 18.1776 69.3888 17.7179C70.5808 17.2581 71.875 17.0282 73.2713 17.0282C74.6847 17.0282 75.9789 17.2581 77.1539 17.7179C78.3459 18.1776 79.3761 18.8247 80.2446 19.6591C81.1301 20.4765 81.8197 21.4472 82.3136 22.571C82.8074 23.6949 83.0543 24.9295 83.0543 26.2748C83.0543 27.603 82.8074 28.8376 82.3136 29.9785C81.8197 31.1024 81.1301 32.0816 80.2446 32.916C79.3761 33.7333 78.3459 34.3719 77.1539 34.8317C75.9789 35.2915 74.6847 35.5214 73.2713 35.5214ZM79.1207 39.3273C78.4225 39.3273 77.7584 39.2506 77.1283 39.0974C76.5153 38.9441 75.9023 38.6972 75.2892 38.3566C74.6932 38.0161 74.0632 37.5563 73.3991 36.9773C72.752 36.3983 72.0453 35.6831 71.279 34.8317L75.6213 33.7333C76.0811 34.3634 76.5068 34.8658 76.8985 35.2404C77.2901 35.615 77.6647 35.879 78.0223 36.0322C78.397 36.1855 78.7886 36.2621 79.1973 36.2621C80.2872 36.2621 81.2578 35.8194 82.1092 34.9339L83.9483 37.1306C82.7393 38.595 81.1301 39.3273 79.1207 39.3273ZM73.2713 31.9964C74.0717 31.9964 74.8039 31.8602 75.468 31.5877C76.1492 31.3153 76.7452 30.9236 77.2561 30.4128C77.7669 29.9019 78.1586 29.2974 78.431 28.5992C78.7205 27.884 78.8653 27.1092 78.8653 26.2748C78.8653 25.4234 78.7205 24.6485 78.431 23.9504C78.1586 23.2522 77.7669 22.6477 77.2561 22.1368C76.7452 21.626 76.1492 21.2343 75.468 20.9618C74.8039 20.6894 74.0717 20.5532 73.2713 20.5532C72.471 20.5532 71.7302 20.6894 71.0491 20.9618C70.368 21.2343 69.7719 21.626 69.2611 22.1368C68.7673 22.6477 68.3756 23.2522 68.0861 23.9504C67.8137 24.6485 67.6774 25.4234 67.6774 26.2748C67.6774 27.1092 67.8137 27.884 68.0861 28.5992C68.3756 29.2974 68.7673 29.9019 69.2611 30.4128C69.7719 30.9236 70.368 31.3153 71.0491 31.5877C71.7302 31.8602 72.471 31.9964 73.2713 31.9964ZM92.9075 35.4192C91.7666 35.4192 90.7449 35.1978 89.8424 34.7551C88.9569 34.3123 88.2672 33.6397 87.7734 32.7372C87.2796 31.8176 87.0326 30.6512 87.0326 29.2378V21.4727H91.0174V28.6503C91.0174 29.7912 91.2558 30.6341 91.7326 31.179C92.2264 31.7069 92.9161 31.9709 93.8015 31.9709C94.4146 31.9709 94.9595 31.8432 95.4363 31.5877C95.9131 31.3153 96.2877 30.9066 96.5602 30.3617C96.8327 29.7997 96.9689 29.1015 96.9689 28.2671V21.4727H100.954V35.2148H97.1732V31.4345L97.8629 32.5328C97.4031 33.4864 96.722 34.2102 95.8194 34.704C94.934 35.1808 93.9633 35.4192 92.9075 35.4192ZM105.871 35.2148V21.4727H109.856V35.2148H105.871ZM107.864 19.557C107.131 19.557 106.535 19.3441 106.076 18.9184C105.616 18.4927 105.386 17.9648 105.386 17.3347C105.386 16.7047 105.616 16.1768 106.076 15.7511C106.535 15.3253 107.131 15.1125 107.864 15.1125C108.596 15.1125 109.192 15.3168 109.652 15.7255C110.111 16.1172 110.341 16.628 110.341 17.2581C110.341 17.9222 110.111 18.4757 109.652 18.9184C109.209 19.3441 108.613 19.557 107.864 19.557ZM121.421 35.4192C119.94 35.4192 118.62 35.1212 117.462 34.5252C116.304 33.9121 115.393 33.0692 114.729 31.9964C114.082 30.9236 113.758 29.7061 113.758 28.3438C113.758 26.9644 114.082 25.7469 114.729 24.6911C115.393 23.6183 116.304 22.7839 117.462 22.1879C118.62 21.5749 119.94 21.2684 121.421 21.2684C122.869 21.2684 124.129 21.5749 125.202 22.1879C126.275 22.7839 127.066 23.6439 127.577 24.7677L124.486 26.428C124.129 25.781 123.678 25.3042 123.133 24.9976C122.605 24.6911 122.026 24.5379 121.396 24.5379C120.715 24.5379 120.102 24.6911 119.557 24.9976C119.012 25.3042 118.578 25.7384 118.254 26.3003C117.947 26.8623 117.794 27.5434 117.794 28.3438C117.794 29.1441 117.947 29.8253 118.254 30.3872C118.578 30.9492 119.012 31.3834 119.557 31.6899C120.102 31.9964 120.715 32.1497 121.396 32.1497C122.026 32.1497 122.605 32.0049 123.133 31.7154C123.678 31.4089 124.129 30.9236 124.486 30.2595L127.577 31.9453C127.066 33.0522 126.275 33.9121 125.202 34.5252C124.129 35.1212 122.869 35.4192 121.421 35.4192ZM134.318 32.4051L134.42 27.5519L140.831 21.4727H145.582L139.426 27.7307L137.357 29.4166L134.318 32.4051ZM131.023 35.2148V16.2619H135.007V35.2148H131.023ZM141.265 35.2148L136.617 29.4421L139.12 26.3514L146.093 35.2148H141.265ZM152.562 35.5214C151.353 35.5214 150.238 35.3 149.216 34.8572C148.212 34.3975 147.386 33.7504 146.739 32.916L149.038 30.1573C149.531 30.8044 150.051 31.2982 150.596 31.6388C151.141 31.9624 151.728 32.1241 152.358 32.1241C154.044 32.1241 154.887 31.1365 154.887 29.1611V20.6553H148.603V17.3347H158.999V28.9313C158.999 31.145 158.454 32.7968 157.365 33.8866C156.275 34.9764 154.674 35.5214 152.562 35.5214ZM176.573 35.2148V17.3347H180.711V35.2148H176.573ZM164.313 35.2148V17.3347H168.451V35.2148H164.313ZM168.144 27.884V24.3846H176.88V27.884H168.144ZM183.818 35.2148L191.787 17.3347H195.874L203.869 35.2148H199.527L192.988 19.4293H194.622L188.058 35.2148H183.818ZM187.802 31.3834L188.901 28.2416H198.096L199.22 31.3834H187.802Z" fill="#16A8EB"/>
<path d="M66.2472 46.5281C65.8535 46.5281 65.4903 46.4648 65.1575 46.3383C64.8248 46.2118 64.5342 46.0337 64.2858 45.804C64.0421 45.5697 63.8523 45.2978 63.7163 44.9885C63.5804 44.6792 63.5125 44.3394 63.5125 43.9691C63.5125 43.5989 63.5804 43.2591 63.7163 42.9497C63.8523 42.6404 64.0421 42.3709 64.2858 42.1413C64.5342 41.9069 64.8248 41.7265 65.1575 41.5999C65.4903 41.4734 65.8535 41.4101 66.2472 41.4101C66.6456 41.4101 67.0088 41.4734 67.3369 41.5999C67.6696 41.7265 67.9579 41.9069 68.2016 42.1413C68.4453 42.3709 68.6351 42.6404 68.771 42.9497C68.9116 43.2591 68.982 43.5989 68.982 43.9691C68.982 44.3394 68.9116 44.6815 68.771 44.9955C68.6351 45.3049 68.4453 45.5743 68.2016 45.804C67.9579 46.0337 67.6696 46.2118 67.3369 46.3383C67.0088 46.4648 66.6456 46.5281 66.2472 46.5281ZM66.2472 45.3752C66.4347 45.3752 66.6081 45.3424 66.7674 45.2767C66.9315 45.2111 67.0721 45.1174 67.1893 44.9955C67.3111 44.869 67.4048 44.719 67.4705 44.5456C67.5408 44.3722 67.5759 44.18 67.5759 43.9691C67.5759 43.7535 67.5408 43.5614 67.4705 43.3926C67.4048 43.2192 67.3111 43.0716 67.1893 42.9497C67.0721 42.8232 66.9315 42.7271 66.7674 42.6615C66.6081 42.5959 66.4347 42.5631 66.2472 42.5631C66.0597 42.5631 65.884 42.5959 65.7199 42.6615C65.5606 42.7271 65.42 42.8232 65.2981 42.9497C65.181 43.0716 65.0872 43.2192 65.0169 43.3926C64.9513 43.5614 64.9185 43.7535 64.9185 43.9691C64.9185 44.18 64.9513 44.3722 65.0169 44.5456C65.0872 44.719 65.181 44.869 65.2981 44.9955C65.42 45.1174 65.5606 45.2111 65.7199 45.2767C65.884 45.3424 66.0597 45.3752 66.2472 45.3752ZM72.1645 46.5281C71.7755 46.5281 71.4147 46.4672 71.0819 46.3453C70.7538 46.2188 70.4679 46.0407 70.2242 45.811C69.9852 45.5814 69.7977 45.3119 69.6618 45.0026C69.5259 44.6885 69.4579 44.3441 69.4579 43.9691C69.4579 43.5942 69.5259 43.252 69.6618 42.9427C69.7977 42.6287 69.9852 42.3569 70.2242 42.1272C70.4679 41.8976 70.7538 41.7218 71.0819 41.5999C71.4147 41.4734 71.7755 41.4101 72.1645 41.4101C72.6192 41.4101 73.0246 41.4898 73.3808 41.6492C73.7416 41.8085 74.0416 42.0382 74.2806 42.3381L73.3948 43.1396C73.2355 42.9521 73.0597 42.8091 72.8676 42.7107C72.6801 42.6123 72.4692 42.5631 72.2348 42.5631C72.0333 42.5631 71.8482 42.5959 71.6795 42.6615C71.5107 42.7271 71.3654 42.8232 71.2436 42.9497C71.1264 43.0716 71.0327 43.2192 70.9624 43.3926C70.8968 43.5661 70.864 43.7582 70.864 43.9691C70.864 44.18 70.8968 44.3722 70.9624 44.5456C71.0327 44.719 71.1264 44.869 71.2436 44.9955C71.3654 45.1174 71.5107 45.2111 71.6795 45.2767C71.8482 45.3424 72.0333 45.3752 72.2348 45.3752C72.4692 45.3752 72.6801 45.3259 72.8676 45.2275C73.0597 45.1291 73.2355 44.9862 73.3948 44.7987L74.2806 45.6001C74.0416 45.8954 73.7416 46.125 73.3808 46.2891C73.0246 46.4484 72.6192 46.5281 72.1645 46.5281ZM77.1008 46.5281C76.7118 46.5281 76.3509 46.4672 76.0181 46.3453C75.6901 46.2188 75.4042 46.0407 75.1604 45.811C74.9214 45.5814 74.7339 45.3119 74.598 45.0026C74.4621 44.6885 74.3942 44.3441 74.3942 43.9691C74.3942 43.5942 74.4621 43.252 74.598 42.9427C74.7339 42.6287 74.9214 42.3569 75.1604 42.1272C75.4042 41.8976 75.6901 41.7218 76.0181 41.5999C76.3509 41.4734 76.7118 41.4101 77.1008 41.4101C77.5554 41.4101 77.9608 41.4898 78.317 41.6492C78.6779 41.8085 78.9778 42.0382 79.2169 42.3381L78.3311 43.1396C78.1717 42.9521 77.996 42.8091 77.8038 42.7107C77.6163 42.6123 77.4054 42.5631 77.1711 42.5631C76.9695 42.5631 76.7844 42.5959 76.6157 42.6615C76.447 42.7271 76.3017 42.8232 76.1798 42.9497C76.0627 43.0716 75.9689 43.2192 75.8986 43.3926C75.833 43.5661 75.8002 43.7582 75.8002 43.9691C75.8002 44.18 75.833 44.3722 75.8986 44.5456C75.9689 44.719 76.0627 44.869 76.1798 44.9955C76.3017 45.1174 76.447 45.2111 76.6157 45.2767C76.7844 45.3424 76.9695 45.3752 77.1711 45.3752C77.4054 45.3752 77.6163 45.3259 77.8038 45.2275C77.996 45.1291 78.1717 44.9862 78.3311 44.7987L79.2169 45.6001C78.9778 45.8954 78.6779 46.125 78.317 46.2891C77.9608 46.4484 77.5554 46.5281 77.1008 46.5281ZM82.0053 46.5281C81.2788 46.5281 80.7117 46.3289 80.304 45.9305C79.8962 45.5322 79.6923 44.9674 79.6923 44.2363V41.5086H81.0843V44.1941C81.0843 44.6159 81.1663 44.9182 81.3304 45.101C81.4991 45.2838 81.7287 45.3752 82.0193 45.3752C82.3099 45.3752 82.5372 45.2838 82.7013 45.101C82.8653 44.9182 82.9473 44.6159 82.9473 44.1941V41.5086H84.3182V44.2363C84.3182 44.9674 84.1143 45.5322 83.7066 45.9305C83.2988 46.3289 82.7317 46.5281 82.0053 46.5281ZM85.2612 46.4297V41.5086H87.5108C87.9608 41.5086 88.3474 41.5812 88.6708 41.7265C88.9989 41.8718 89.252 42.0827 89.4301 42.3592C89.6082 42.631 89.6972 42.9544 89.6972 43.3294C89.6972 43.6996 89.6082 44.0207 89.4301 44.2925C89.252 44.5643 88.9989 44.7752 88.6708 44.9252C88.3474 45.0705 87.9608 45.1432 87.5108 45.1432H86.0345L86.6532 44.5386V46.4297H85.2612ZM86.6532 44.6862L86.0345 44.0465H87.4265C87.7171 44.0465 87.9326 43.9832 88.0733 43.8566C88.2185 43.7301 88.2912 43.5543 88.2912 43.3294C88.2912 43.0997 88.2185 42.9216 88.0733 42.7951C87.9326 42.6685 87.7171 42.6053 87.4265 42.6053H86.0345L86.6532 41.9655V44.6862ZM89.5382 46.4297L91.7106 41.5086H93.0814L95.2608 46.4297H93.8126L92.1113 42.1905H92.6596L90.9583 46.4297H89.5382ZM90.7263 45.4736L91.0849 44.4472H93.4892L93.8477 45.4736H90.7263ZM96.4558 46.4297V42.6123H94.9443V41.5086H99.3522V42.6123H97.8477V46.4297H96.4558ZM99.8708 46.4297V41.5086H101.263V46.4297H99.8708ZM104.735 46.5281C104.341 46.5281 103.978 46.4648 103.645 46.3383C103.312 46.2118 103.022 46.0337 102.773 45.804C102.53 45.5697 102.34 45.2978 102.204 44.9885C102.068 44.6792 102 44.3394 102 43.9691C102 43.5989 102.068 43.2591 102.204 42.9497C102.34 42.6404 102.53 42.3709 102.773 42.1413C103.022 41.9069 103.312 41.7265 103.645 41.5999C103.978 41.4734 104.341 41.4101 104.735 41.4101C105.133 41.4101 105.496 41.4734 105.824 41.5999C106.157 41.7265 106.445 41.9069 106.689 42.1413C106.933 42.3709 107.123 42.6404 107.259 42.9497C107.399 43.2591 107.469 43.5989 107.469 43.9691C107.469 44.3394 107.399 44.6815 107.259 44.9955C107.123 45.3049 106.933 45.5743 106.689 45.804C106.445 46.0337 106.157 46.2118 105.824 46.3383C105.496 46.4648 105.133 46.5281 104.735 46.5281ZM104.735 45.3752C104.922 45.3752 105.096 45.3424 105.255 45.2767C105.419 45.2111 105.56 45.1174 105.677 44.9955C105.799 44.869 105.892 44.719 105.958 44.5456C106.028 44.3722 106.063 44.18 106.063 43.9691C106.063 43.7535 106.028 43.5614 105.958 43.3926C105.892 43.2192 105.799 43.0716 105.677 42.9497C105.56 42.8232 105.419 42.7271 105.255 42.6615C105.096 42.5959 104.922 42.5631 104.735 42.5631C104.547 42.5631 104.372 42.5959 104.207 42.6615C104.048 42.7271 103.908 42.8232 103.786 42.9497C103.668 43.0716 103.575 43.2192 103.504 43.3926C103.439 43.5614 103.406 43.7535 103.406 43.9691C103.406 44.18 103.439 44.3722 103.504 44.5456C103.575 44.719 103.668 44.869 103.786 44.9955C103.908 45.1174 104.048 45.2111 104.207 45.2767C104.372 45.3424 104.547 45.3752 104.735 45.3752ZM108.199 46.4297V41.5086H109.344L112.058 44.7846H111.517V41.5086H112.881V46.4297H111.735L109.021 43.1536H109.562V46.4297H108.199ZM113.272 46.4297L115.444 41.5086H116.815L118.995 46.4297H117.546L115.845 42.1905H116.393L114.692 46.4297H113.272ZM114.46 45.4736L114.819 44.4472H117.223L117.581 45.4736H114.46ZM119.389 46.4297V41.5086H120.781V45.3259H123.129V46.4297H119.389ZM127.455 46.5281C127.052 46.5281 126.663 46.4789 126.288 46.3805C125.918 46.2774 125.616 46.1461 125.381 45.9868L125.838 44.9604C126.059 45.101 126.312 45.2182 126.598 45.3119C126.888 45.4009 127.177 45.4455 127.462 45.4455C127.655 45.4455 127.809 45.4291 127.926 45.3962C128.044 45.3588 128.128 45.3119 128.179 45.2556C128.236 45.1947 128.264 45.1244 128.264 45.0447C128.264 44.9323 128.212 44.8432 128.109 44.7776C128.006 44.712 127.873 44.6581 127.708 44.6159C127.544 44.5737 127.362 44.5315 127.16 44.4894C126.963 44.4472 126.764 44.3933 126.563 44.3277C126.366 44.262 126.185 44.1777 126.021 44.0746C125.857 43.9668 125.724 43.8285 125.621 43.6598C125.517 43.4864 125.466 43.2684 125.466 43.006C125.466 42.7107 125.546 42.4436 125.705 42.2045C125.869 41.9655 126.113 41.7734 126.436 41.6281C126.759 41.4828 127.162 41.4101 127.645 41.4101C127.969 41.4101 128.285 41.4476 128.594 41.5226C128.908 41.5929 129.187 41.6984 129.431 41.839L129.002 42.8724C128.768 42.7459 128.536 42.6521 128.306 42.5912C128.076 42.5256 127.854 42.4928 127.638 42.4928C127.446 42.4928 127.291 42.5139 127.174 42.5561C127.057 42.5935 126.973 42.6451 126.921 42.7107C126.87 42.7763 126.844 42.8513 126.844 42.9357C126.844 43.0435 126.893 43.1302 126.991 43.1958C127.095 43.2567 127.228 43.3083 127.392 43.3505C127.561 43.388 127.744 43.4278 127.94 43.47C128.142 43.5122 128.341 43.5661 128.538 43.6317C128.74 43.6926 128.922 43.777 129.086 43.8848C129.25 43.9879 129.382 44.1261 129.48 44.2995C129.583 44.4683 129.635 44.6815 129.635 44.9393C129.635 45.2252 129.553 45.49 129.389 45.7337C129.229 45.9727 128.988 46.1649 128.665 46.3102C128.346 46.4555 127.943 46.5281 127.455 46.5281ZM129.687 46.4297L131.86 41.5086H133.23L135.41 46.4297H133.962L132.26 42.1905H132.809L131.107 46.4297H129.687ZM130.875 45.4736L131.234 44.4472H133.638L133.997 45.4736H130.875ZM135.804 46.4297V41.5086H139.664V42.5842H137.196V46.4297H135.804ZM137.098 44.7424V43.6668H139.369V44.7424H137.098ZM140.315 46.4297V41.5086H144.175V42.5842H141.693V45.3541H144.266V46.4297H140.315ZM141.594 44.4542V43.4137H143.879V44.4542H141.594ZM146.086 46.4297V42.6123H144.574V41.5086H148.982V42.6123H147.478V46.4297H146.086ZM150.629 46.4297V44.3488L150.952 45.1853L148.751 41.5086H150.221L151.81 44.173H150.959L152.555 41.5086H153.905L151.711 45.1853L152.021 44.3488V46.4297H150.629ZM156.305 46.4297V41.5086H158.632C159.175 41.5086 159.653 41.6093 160.066 41.8109C160.478 42.0124 160.799 42.2959 161.029 42.6615C161.263 43.0271 161.38 43.4629 161.38 43.9691C161.38 44.4706 161.263 44.9065 161.029 45.2767C160.799 45.6423 160.478 45.9259 160.066 46.1274C159.653 46.3289 159.175 46.4297 158.632 46.4297H156.305ZM157.697 45.3189H158.575C158.856 45.3189 159.1 45.2674 159.306 45.1643C159.517 45.0565 159.681 44.9018 159.799 44.7003C159.916 44.494 159.974 44.2503 159.974 43.9691C159.974 43.6832 159.916 43.4395 159.799 43.238C159.681 43.0364 159.517 42.8841 159.306 42.781C159.1 42.6732 158.856 42.6193 158.575 42.6193H157.697V45.3189ZM164.594 46.5281C164.201 46.5281 163.837 46.4648 163.505 46.3383C163.172 46.2118 162.881 46.0337 162.633 45.804C162.389 45.5697 162.199 45.2978 162.063 44.9885C161.928 44.6792 161.86 44.3394 161.86 43.9691C161.86 43.5989 161.928 43.2591 162.063 42.9497C162.199 42.6404 162.389 42.3709 162.633 42.1413C162.881 41.9069 163.172 41.7265 163.505 41.5999C163.837 41.4734 164.201 41.4101 164.594 41.4101C164.993 41.4101 165.356 41.4734 165.684 41.5999C166.017 41.7265 166.305 41.9069 166.549 42.1413C166.792 42.3709 166.982 42.6404 167.118 42.9497C167.259 43.2591 167.329 43.5989 167.329 43.9691C167.329 44.3394 167.259 44.6815 167.118 44.9955C166.982 45.3049 166.792 45.5743 166.549 45.804C166.305 46.0337 166.017 46.2118 165.684 46.3383C165.356 46.4648 164.993 46.5281 164.594 46.5281ZM164.594 45.3752C164.782 45.3752 164.955 45.3424 165.115 45.2767C165.279 45.2111 165.419 45.1174 165.536 44.9955C165.658 44.869 165.752 44.719 165.818 44.5456C165.888 44.3722 165.923 44.18 165.923 43.9691C165.923 43.7535 165.888 43.5614 165.818 43.3926C165.752 43.2192 165.658 43.0716 165.536 42.9497C165.419 42.8232 165.279 42.7271 165.115 42.6615C164.955 42.5959 164.782 42.5631 164.594 42.5631C164.407 42.5631 164.231 42.5959 164.067 42.6615C163.908 42.7271 163.767 42.8232 163.645 42.9497C163.528 43.0716 163.434 43.2192 163.364 43.3926C163.298 43.5614 163.266 43.7535 163.266 43.9691C163.266 44.18 163.298 44.3722 163.364 44.5456C163.434 44.719 163.528 44.869 163.645 44.9955C163.767 45.1174 163.908 45.2111 164.067 45.2767C164.231 45.3424 164.407 45.3752 164.594 45.3752ZM170.512 46.5281C170.123 46.5281 169.762 46.4672 169.429 46.3453C169.101 46.2188 168.815 46.0407 168.571 45.811C168.332 45.5814 168.145 45.3119 168.009 45.0026C167.873 44.6885 167.805 44.3441 167.805 43.9691C167.805 43.5942 167.873 43.252 168.009 42.9427C168.145 42.6287 168.332 42.3569 168.571 42.1272C168.815 41.8976 169.101 41.7218 169.429 41.5999C169.762 41.4734 170.123 41.4101 170.512 41.4101C170.966 41.4101 171.372 41.4898 171.728 41.6492C172.089 41.8085 172.389 42.0382 172.628 42.3381L171.742 43.1396C171.583 42.9521 171.407 42.8091 171.215 42.7107C171.027 42.6123 170.816 42.5631 170.582 42.5631C170.38 42.5631 170.195 42.5959 170.027 42.6615C169.858 42.7271 169.713 42.8232 169.591 42.9497C169.474 43.0716 169.38 43.2192 169.31 43.3926C169.244 43.5661 169.211 43.7582 169.211 43.9691C169.211 44.18 169.244 44.3722 169.31 44.5456C169.38 44.719 169.474 44.869 169.591 44.9955C169.713 45.1174 169.858 45.2111 170.027 45.2767C170.195 45.3424 170.38 45.3752 170.582 45.3752C170.816 45.3752 171.027 45.3259 171.215 45.2275C171.407 45.1291 171.583 44.9862 171.742 44.7987L172.628 45.6001C172.389 45.8954 172.089 46.125 171.728 46.2891C171.372 46.4484 170.966 46.5281 170.512 46.5281ZM175.416 46.5281C174.69 46.5281 174.123 46.3289 173.715 45.9305C173.307 45.5322 173.103 44.9674 173.103 44.2363V41.5086H174.495V44.1941C174.495 44.6159 174.577 44.9182 174.741 45.101C174.91 45.2838 175.14 45.3752 175.43 45.3752C175.721 45.3752 175.948 45.2838 176.112 45.101C176.276 44.9182 176.358 44.6159 176.358 44.1941V41.5086H177.729V44.2363C177.729 44.9674 177.525 45.5322 177.117 45.9305C176.71 46.3289 176.143 46.5281 175.416 46.5281ZM178.672 46.4297V41.5086H179.818L181.857 44.8549H181.252L183.235 41.5086H184.381L184.395 46.4297H183.115L183.101 43.4559H183.319L181.836 45.9446H181.217L179.691 43.4559H179.959V46.4297H178.672ZM185.38 46.4297V41.5086H189.239V42.5842H186.757V45.3541H189.331V46.4297H185.38ZM186.659 44.4542V43.4137H188.944V44.4542H186.659ZM190.103 46.4297V41.5086H191.249L193.963 44.7846H193.421V41.5086H194.785V46.4297H193.639L190.926 43.1536H191.467V46.4297H190.103ZM196.814 46.4297V42.6123H195.303V41.5086H199.711V42.6123H198.206V46.4297H196.814ZM201.945 46.5281C201.542 46.5281 201.153 46.4789 200.778 46.3805C200.408 46.2774 200.106 46.1461 199.871 45.9868L200.328 44.9604C200.549 45.101 200.802 45.2182 201.087 45.3119C201.378 45.4009 201.666 45.4455 201.952 45.4455C202.144 45.4455 202.299 45.4291 202.416 45.3962C202.533 45.3588 202.618 45.3119 202.669 45.2556C202.726 45.1947 202.754 45.1244 202.754 45.0447C202.754 44.9323 202.702 44.8432 202.599 44.7776C202.496 44.712 202.362 44.6581 202.198 44.6159C202.034 44.5737 201.851 44.5315 201.65 44.4894C201.453 44.4472 201.254 44.3933 201.052 44.3277C200.855 44.262 200.675 44.1777 200.511 44.0746C200.347 43.9668 200.213 43.8285 200.11 43.6598C200.007 43.4864 199.956 43.2684 199.956 43.006C199.956 42.7107 200.035 42.4436 200.195 42.2045C200.359 41.9655 200.602 41.7734 200.926 41.6281C201.249 41.4828 201.652 41.4101 202.135 41.4101C202.458 41.4101 202.775 41.4476 203.084 41.5226C203.398 41.5929 203.677 41.6984 203.921 41.839L203.492 42.8724C203.257 42.7459 203.025 42.6521 202.796 42.5912C202.566 42.5256 202.344 42.4928 202.128 42.4928C201.936 42.4928 201.781 42.5139 201.664 42.5561C201.547 42.5935 201.462 42.6451 201.411 42.7107C201.359 42.7763 201.334 42.8513 201.334 42.9357C201.334 43.0435 201.383 43.1302 201.481 43.1958C201.584 43.2567 201.718 43.3083 201.882 43.3505C202.051 43.388 202.233 43.4278 202.43 43.47C202.632 43.5122 202.831 43.5661 203.028 43.6317C203.229 43.6926 203.412 43.777 203.576 43.8848C203.74 43.9879 203.871 44.1261 203.97 44.2995C204.073 44.4683 204.125 44.6815 204.125 44.9393C204.125 45.2252 204.043 45.49 203.878 45.7337C203.719 45.9727 203.478 46.1649 203.154 46.3102C202.836 46.4555 202.433 46.5281 201.945 46.5281Z" fill="#16A8EB"/>
</svg>
